<?xml version="1.0" encoding="utf-8"?>
<!-- Generator: Adobe Illustrator 19.0.0, SVG Export Plug-In . SVG Version: 6.00 Build 0)  -->
<svg version="1.1" id="Warstwa_1" xmlns="http://www.w3.org/2000/svg" xmlns:xlink="http://www.w3.org/1999/xlink" x="0px" y="0px"
	 viewBox="0 0 849 421.9" style="enable-background:new 0 0 849 421.9;" xml:space="preserve">
<style type="text/css">
	.st0{fill:#FEC111;}
	.st1{fill:#4374BA;}
	.st2{fill:none;}
	.st3{fill:#545554;}
	.st4{fill:none;stroke:#545554;stroke-width:10;stroke-miterlimit:10;}
	.st5{fill:none;stroke:#545554;stroke-width:8;stroke-miterlimit:10;}
</style>
<polygon id="XMLID_5804_" class="st0" points="493.7,21 484.4,25.7 465.5,18.9 435.3,17.3 411.7,44.9 399.5,50.1 398.4,60.7 
	401.6,65.2 408.8,62.8 415.8,53.5 439.8,33.7 450.7,39.3 461.3,40.7 420.9,84.1 399.2,137.1 373.9,157.3 356.4,185.3 346.4,183.2 
	338.8,189.5 341,203.6 340.1,223.6 347.7,228.9 350.3,228.7 349,220.2 353.6,207.1 360.9,196.8 400.7,162.3 412.3,157.9 
	414.4,151.7 447.1,121.6 467.6,128.4 454.6,139 441.2,155.3 432.4,155 424.8,161.2 427.6,169.9 443.3,190.2 448.1,191.5 
	449.3,185.5 444.9,169.4 446.3,164.2 495.4,136.3 499,124.5 492,112.4 466.4,92.6 494.9,71.1 505.6,85.2 515.2,85.5 532.6,73.5 
	547.9,55.1 559.4,48.8 556.7,39.7 550.5,35.5 545.2,41 542.8,49.3 515.2,64.9 512.6,55.3 504.9,43.4 506.8,39.8 515.5,40.4 
	520.8,38.5 523.4,28.8 525.7,28 523.6,18.6 523.1,6.4 514.3,0 501.1,0.2 493,9.1 "/>
<g id="XMLID_81_">
	<path id="XMLID_82_" class="st1" d="M33.7,421.9l-8.3-15.8H25H14.3v15.8H-0.7v-57.2H25c7.6,0,13.4,1.8,17.6,5.3
		c4.2,3.5,6.2,8.4,6.2,14.8c0,4.3-0.9,8-2.6,11.1c-1.7,3.1-4.3,5.6-7.6,7.3l11.9,18.7H33.7z M14.3,394.2h10.8c3,0,5.4-0.8,7.1-2.3
		c1.7-1.5,2.5-3.7,2.5-6.6c0-2.8-0.8-4.9-2.5-6.4c-1.7-1.5-4-2.2-7.1-2.2H14.3V394.2z"/>
	<path id="XMLID_85_" class="st1" d="M101.5,377.8v44.1H86.9v-7.2c-3,5.1-7.7,7.7-14.1,7.8c-4.8,0-8.6-1.5-11.5-4.6
		c-2.9-3.1-4.3-7.2-4.3-12.3v-27.9h14.5v23.7c0,2.5,0.6,4.5,1.9,5.9c1.3,1.4,3,2.1,5.2,2.1c2.6-0.1,4.6-1,6-2.8
		c1.5-1.8,2.2-4.2,2.2-7.1v-21.8H101.5z"/>
	<path id="XMLID_87_" class="st1" d="M153.3,381.8c2.9,3,4.4,7.2,4.4,12.3v27.8h-14.4v-23.7c0-2.5-0.7-4.5-2-5.9
		c-1.4-1.4-3.2-2.2-5.5-2.2c-2.4,0.1-4.4,0.8-5.9,2.4c-1.5,1.5-2.5,3.5-2.7,6v23.3h-14.5v-44.1h14.5v7.2c1.6-2.6,3.6-4.5,6.1-5.8
		c2.5-1.3,5.3-2,8.5-2C146.5,377.2,150.4,378.7,153.3,381.8z"/>
	<path id="XMLID_89_" class="st1" d="M220.4,378.6c-2.6-1.4-5.1-2.1-7.6-2.1c-2.9,0-5.5,0.7-7.9,2.2c-2.4,1.4-4.2,3.4-5.6,6
		c-1.4,2.5-2,5.3-2,8.4s0.7,5.9,2,8.4c1.4,2.5,3.2,4.5,5.6,6c2.4,1.4,5,2.2,7.9,2.2c2.3,0,4.8-0.6,7.3-1.8c2.6-1.2,4.8-2.8,6.9-4.9
		l8.7,9.4c-3.1,3.3-6.8,5.9-11.1,7.8c-4.3,1.9-8.5,2.9-12.7,2.9c-5.7,0-10.8-1.3-15.3-3.9c-4.6-2.6-8.2-6.2-10.8-10.7
		c-2.6-4.5-3.9-9.6-3.9-15.2c0-5.5,1.3-10.5,4-15c2.7-4.5,6.3-8,11-10.5c4.6-2.6,9.9-3.8,15.6-3.8c4.2,0,8.4,0.9,12.6,2.7
		c4.1,1.8,7.6,4.2,10.5,7.2l-8.6,10.4C225.1,381.8,222.9,379.9,220.4,378.6z"/>
	<path id="XMLID_91_" class="st1" d="M283.3,381.8c2.9,3,4.4,7.2,4.4,12.3v27.8h-14.5v-23.7c0-2.5-0.7-4.5-2-5.9
		c-1.3-1.4-3.2-2.2-5.5-2.2c-2.7,0.1-4.8,1-6.3,2.8c-1.5,1.8-2.3,4.2-2.3,7.1v21.8h-14.5v-60.5H257V385c1.6-2.6,3.6-4.5,6.1-5.8
		c2.5-1.3,5.3-2,8.5-2C276.5,377.2,280.4,378.7,283.3,381.8z"/>
	<path id="XMLID_93_" class="st1" d="M331.5,381.4c3.4,2.8,5.1,6.7,5.1,11.8v28.7h-14.3v-5c-2.9,3.8-7.4,5.6-13.3,5.6
		c-4.7,0-8.4-1.3-11.1-3.8c-2.7-2.5-4-5.9-4-10c0-4.2,1.5-7.4,4.4-9.8c2.9-2.3,7.1-3.5,12.5-3.6h11.5v-0.5c0-2.1-0.7-3.8-2.2-4.9
		c-1.4-1.1-3.5-1.7-6.2-1.7c-1.8,0-3.9,0.3-6.2,0.9c-2.3,0.6-4.6,1.5-7,2.6l-4-9.8c3.6-1.6,7-2.8,10.3-3.6c3.3-0.8,6.7-1.2,10.2-1.2
		C323.4,377.2,328.2,378.6,331.5,381.4z M319.3,411.1c1.6-1.1,2.7-2.4,3.1-4.1v-3.8h-8.6c-4.1,0-6.1,1.5-6.1,4.6
		c0,1.5,0.5,2.7,1.6,3.6c1.1,0.9,2.5,1.3,4.4,1.3C315.8,412.7,317.7,412.2,319.3,411.1z"/>
	<path id="XMLID_96_" class="st1" d="M366.9,379.3c2.4-1.4,5.2-2,8.3-2v13.3c-0.5-0.1-1.2-0.1-2.2-0.1c-3.4,0-6.2,0.8-8.3,2.4
		c-2.1,1.6-3.3,3.8-3.7,6.6v22.5h-14.5v-44.1H361v7.3C362.5,382.6,364.5,380.6,366.9,379.3z"/>
	<path id="XMLID_98_" class="st1" d="M410.2,419.6c-1.6,0.9-3.5,1.6-5.6,2.2c-2.1,0.5-4.3,0.8-6.4,0.8c-4.4,0-7.9-1.3-10.6-3.8
		c-2.7-2.5-4-6-4-10.4v-18.9h-6.1v-9.6h6.1v-12.2H398v12.2h11.4v9.6H398v16.6c0,3.1,1.3,4.6,3.8,4.6c1.6,0,3.5-0.5,5.6-1.5
		L410.2,419.6z"/>
	<path id="XMLID_100_" class="st1" d="M473.1,392.7H486v22.8c-3,2.2-6.8,4-11.2,5.4c-4.4,1.4-8.6,2.1-12.6,2.1
		c-5.8,0-11-1.3-15.6-3.9c-4.6-2.6-8.3-6.1-11-10.6c-2.7-4.5-4-9.6-4-15.2c0-5.5,1.4-10.6,4.1-15c2.7-4.5,6.5-8,11.3-10.6
		c4.8-2.6,10.2-3.8,16.1-3.8c4.2,0,8.5,0.8,12.7,2.3s7.8,3.6,10.8,6.2l-8.5,10.4c-2.1-2-4.4-3.5-7.1-4.6s-5.3-1.7-8-1.7
		c-3,0-5.8,0.7-8.2,2.2c-2.4,1.5-4.4,3.5-5.8,6c-1.4,2.6-2.1,5.4-2.1,8.6c0,3.2,0.7,6.1,2.1,8.7c1.4,2.6,3.4,4.6,5.9,6.1
		c2.5,1.5,5.3,2.2,8.3,2.2c2.9,0,6.2-0.9,9.9-2.8V392.7z"/>
	<path id="XMLID_102_" class="st1" d="M531.9,383.7c3.9,4.2,5.8,10.1,5.8,17.5c0,1.1,0,2-0.1,2.6h-30.7c0.7,2.5,1.9,4.4,3.7,5.8
		c1.7,1.3,3.9,2,6.4,2c1.9,0,3.7-0.4,5.5-1.1c1.8-0.8,3.4-1.9,4.9-3.3l7.6,7.6c-2.3,2.6-5,4.5-8.3,5.8c-3.2,1.3-6.9,2-11,2
		c-4.7,0-8.9-0.9-12.4-2.8c-3.5-1.8-6.2-4.5-8.1-7.8c-1.9-3.4-2.8-7.3-2.8-11.7c0-4.5,1-8.5,2.9-11.9c1.9-3.5,4.6-6.1,8.1-8
		c3.5-1.9,7.5-2.8,12.1-2.8C522.5,377.3,528,379.4,531.9,383.7z M523.5,396c0-2.6-0.7-4.6-2.2-6.2c-1.5-1.5-3.5-2.3-5.9-2.3
		c-2.3,0-4.2,0.8-5.8,2.3c-1.5,1.5-2.6,3.6-3.1,6.2H523.5z"/>
	<path id="XMLID_105_" class="st1" d="M585.8,381.8c2.9,3,4.4,7.2,4.4,12.3v27.8h-14.4v-23.7c0-2.5-0.7-4.5-2-5.9
		c-1.4-1.4-3.2-2.2-5.5-2.2c-2.4,0.1-4.4,0.8-5.9,2.4c-1.5,1.5-2.5,3.5-2.7,6v23.3h-14.5v-44.1h14.5v7.2c1.6-2.6,3.6-4.5,6.1-5.8
		c2.5-1.3,5.3-2,8.5-2C579,377.2,582.9,378.7,585.8,381.8z"/>
	<path id="XMLID_107_" class="st1" d="M636,383.7c3.9,4.2,5.8,10.1,5.8,17.5c0,1.1,0,2-0.1,2.6H611c0.7,2.5,1.9,4.4,3.7,5.8
		c1.7,1.3,3.9,2,6.4,2c1.9,0,3.7-0.4,5.5-1.1c1.8-0.8,3.4-1.9,4.9-3.3l7.6,7.6c-2.3,2.6-5,4.5-8.3,5.8c-3.2,1.3-6.9,2-11,2
		c-4.7,0-8.9-0.9-12.4-2.8c-3.5-1.8-6.2-4.5-8.1-7.8c-1.9-3.4-2.8-7.3-2.8-11.7c0-4.5,1-8.5,2.9-11.9c1.9-3.5,4.6-6.1,8.1-8
		c3.5-1.9,7.5-2.8,12.1-2.8C626.6,377.3,632.1,379.4,636,383.7z M627.7,396c0-2.6-0.7-4.6-2.2-6.2c-1.5-1.5-3.5-2.3-5.9-2.3
		c-2.3,0-4.2,0.8-5.8,2.3c-1.5,1.5-2.6,3.6-3.1,6.2H627.7z"/>
	<path id="XMLID_110_" class="st1" d="M669.7,379.3c2.4-1.4,5.2-2,8.3-2v13.3c-0.5-0.1-1.2-0.1-2.2-0.1c-3.4,0-6.2,0.8-8.3,2.4
		c-2.1,1.6-3.3,3.8-3.7,6.6v22.5h-14.5v-44.1h14.5v7.3C665.3,382.6,667.2,380.6,669.7,379.3z"/>
	<path id="XMLID_112_" class="st1" d="M717.2,381.4c3.4,2.8,5.1,6.7,5.1,11.8v28.7H708v-5c-2.9,3.8-7.4,5.6-13.3,5.6
		c-4.7,0-8.4-1.3-11.1-3.8c-2.7-2.5-4-5.9-4-10c0-4.2,1.5-7.4,4.4-9.8c2.9-2.3,7.1-3.5,12.5-3.6H708v-0.5c0-2.1-0.7-3.8-2.2-4.9
		c-1.4-1.1-3.5-1.7-6.2-1.7c-1.8,0-3.9,0.3-6.2,0.9c-2.3,0.6-4.6,1.5-7,2.6l-4-9.8c3.6-1.6,7-2.8,10.3-3.6c3.3-0.8,6.7-1.2,10.2-1.2
		C709.1,377.2,713.8,378.6,717.2,381.4z M704.9,411.1c1.6-1.1,2.7-2.4,3.1-4.1v-3.8h-8.6c-4.1,0-6.1,1.5-6.1,4.6
		c0,1.5,0.5,2.7,1.6,3.6s2.5,1.3,4.4,1.3C701.4,412.7,703.3,412.2,704.9,411.1z"/>
	<path id="XMLID_115_" class="st1" d="M760.8,419.6c-1.6,0.9-3.5,1.6-5.6,2.2c-2.1,0.5-4.3,0.8-6.4,0.8c-4.4,0-7.9-1.3-10.6-3.8
		c-2.7-2.5-4-6-4-10.4v-18.9H728v-9.6h6.1v-12.2h14.4v12.2H760v9.6h-11.4v16.6c0,3.1,1.3,4.6,3.8,4.6c1.6,0,3.5-0.5,5.6-1.5
		L760.8,419.6z"/>
	<path id="XMLID_117_" class="st1" d="M800.6,380.1c3.6,1.9,6.5,4.5,8.5,7.9c2,3.4,3,7.3,3,11.8c0,4.5-1,8.5-3,11.9
		c-2,3.4-4.8,6-8.5,7.9c-3.6,1.9-7.9,2.8-12.6,2.8c-4.8,0-9-0.9-12.6-2.8c-3.6-1.9-6.5-4.5-8.4-7.9c-2-3.4-3-7.4-3-11.9
		c0-4.5,1-8.4,3-11.8c2-3.4,4.8-6,8.4-7.9c3.6-1.9,7.9-2.8,12.6-2.8C792.7,377.3,797,378.2,800.6,380.1z M781.1,392.1
		c-1.7,2-2.6,4.6-2.6,7.9c0,3.3,0.9,6,2.6,8c1.7,2,4,3,6.9,3c2.9,0,5.2-1,6.9-3c1.7-2,2.6-4.7,2.6-8c0-3.3-0.9-5.9-2.7-7.9
		c-1.8-2-4.1-3-6.9-3C785.1,389,782.8,390,781.1,392.1z"/>
	<path id="XMLID_120_" class="st1" d="M840,379.3c2.4-1.4,5.2-2,8.3-2v13.3c-0.5-0.1-1.2-0.1-2.2-0.1c-3.4,0-6.2,0.8-8.3,2.4
		c-2.1,1.6-3.3,3.8-3.7,6.6v22.5h-14.5v-44.1H834v7.3C835.6,382.6,837.5,380.6,840,379.3z"/>
</g>
<path id="XMLID_3_" class="st2" d="M108.8,327.9"/>
<g id="Arrow_26">
	<rect id="XMLID_15_" x="685.5" y="314.9" class="st2" width="35" height="20.1"/>
	<g id="XMLID_10_">
		<polygon id="XMLID_11_" class="st3" points="685.5,329.8 703.1,329.8 703.1,335 720.6,325 703.1,314.9 703.1,320.1 685.5,320.1 		
			"/>
	</g>
</g>
<line id="XMLID_5_" class="st4" x1="685.5" y1="325" x2="108.8" y2="325"/>
<line id="XMLID_6_" class="st4" x1="113.4" y1="325" x2="113.4" y2="94.9"/>
<g id="Arrow_26_1_">
	<rect id="XMLID_17_" x="103.3" y="61.5" class="st2" width="20.1" height="35"/>
	<g id="XMLID_8_">
		<polygon id="XMLID_16_" class="st3" points="118.2,96.5 118.2,78.9 123.5,78.9 113.4,61.5 103.3,78.9 108.5,78.9 108.5,96.5 		"/>
	</g>
</g>
<polyline id="XMLID_9_" class="st5" points="143.4,275.9 192.9,298.9 244.4,267.9 287.4,278.9 411.4,187.9 512.4,209.9 639,105 
	685.5,113.4 "/>
</svg>
